# xmcd
#
# Track frame offsets:
#	150
#	14154
#	28409
#	40446
#	55927
#	73230
#	89307
#	102772
#	116703
#	131504
#
# Disc length: 1966 seconds
#
# Revision: 2
# Processed by: cddbd v1.5.2PL0 Copyright (c) Steve Scherf et al.
# Submitted via: EasyCDDAExtractor 12.0.4.1
#
DISCID=9307ac0a
DTITLE=Willie Nelson - Born For Trouble
DYEAR=1990
DGENRE=Country
TTITLE0=Ain't Necessarily So
TTITLE1=(I Don't Have A Reason) To Go To California Anymore
TTITLE2=Ten With A Two
TTITLE3=The Piper Came Today
TTITLE4=You Decide
TTITLE5=Pieces Of My Life
TTITLE6=It'll Come To Me
TTITLE7=This Is How Without You Goes
TTITLE8=Born For Trouble
TTITLE9=Little Things Mean A Lot
EXTD=
EXTT0=
EXTT1=
EXTT2=
EXTT3=
EXTT4=
EXTT5=
EXTT6=
EXTT7=
EXTT8=
EXTT9=
PLAYORDER=
